<svg xmlns="http://www.w3.org/2000/svg" width="56" height="56" viewBox="0 0 56 56">
  <rect width="56" height="56" rx="8" ry="8" fill="#ffffff"/>
  <svg x="8" y="8" width="40" height="40" viewBox="0 -960 960 960">
    <path d="m340-600-44-96-96-44 96-44 44-96 44 96 96 44-96 44-44 96Zm260 120-38-82-82-38 82-38 38-82 38 82 82 38-82 38-38 82Zm-440 80-38-82-82-38 82-38 38-82 38 82 82 38-82 38-38 82Zm20 260-60-60 300-300 160 160 284-319 56 56-340 383-160-160-240 240Z" fill="#00d4aa"/>
  </svg>
</svg>