<svg xmlns="http://www.w3.org/2000/svg" width="56" height="56" viewBox="0 0 56 56">
  <rect width="56" height="56" rx="8" ry="8" fill="#ffffff"/>
  <svg x="8" y="8" width="40" height="40" viewBox="0 -960 960 960">
    <path d="M620-163 450-333l56-56 114 114 226-226 56 56-282 282Zm220-397h-80v-200h-80v120H280v-120h-80v560h240v80H120v-720h247q11-35 43-57.5t70-22.5q40 0 71.5 22.5T594-840h246v280ZM508.5-771.5Q520-783 520-800t-11.5-28.5Q497-840 480-840t-28.5 11.5Q440-817 440-800t11.5 28.5Q463-760 480-760t28.5-11.5Z" fill="#f97316"/>
  </svg>
</svg>