<svg xmlns="http://www.w3.org/2000/svg" width="56" height="56" viewBox="0 0 56 56">
  <rect width="56" height="56" rx="8" ry="8" fill="#ffffff"/>
  <svg x="8" y="8" width="40" height="40" viewBox="0 -960 960 960">
    <path d="M240-200 80-360l56-58 64 64v-286q0-66 47-113t113-47q66 0 113 47t47 113v280q0 33 23.5 56.5T600-280q33 0 56.5-23.5T680-360v-286l-64 64-56-58 160-160 160 160-56 58-64-64v286q0 66-47 113t-113 47q-66 0-113-47t-47-113v-280q0-33-23.5-56.5T360-720q-33 0-56.5 23.5T280-640v286l64-64 56 58-160 160Z" fill="#8b5cf6"/>
  </svg>
</svg>