<svg xmlns="http://www.w3.org/2000/svg" width="56" height="56" viewBox="0 0 56 56">
  <rect width="56" height="56" rx="8" ry="8" fill="#ffffff"/>
  <svg x="8" y="8" width="40" height="40" viewBox="0 -960 960 960">
    <path d="M320-240h60v-80h80v-60h-80v-80h-60v80h-80v60h80v80Zm200-30h200v-60H520v60Zm0-100h200v-60H520v60ZM250-592h200v-60H250v60ZM120-120v-720h720v720H120Zm80-80h560v-560H200v560Zm0 0v-560 560Zm364-322 56-56 56 56 42-42-56-58 56-56-42-42-56 56-56-56-42 42 56 56-56 58 42 42Z" fill="#00d4aa"/>
  </svg>
</svg>