<svg xmlns="http://www.w3.org/2000/svg" width="56" height="56" viewBox="0 0 56 56">
  <rect width="56" height="56" rx="8" ry="8" fill="#ffffff"/>
  <svg x="8" y="8" width="40" height="40" viewBox="0 -960 960 960">
    <path d="M480-280q17 0 28.5-11.5T520-320q0-17-11.5-28.5T480-360q-17 0-28.5 11.5T440-320q0 17 11.5 28.5T480-280Zm-40-160h80v-240h-80v240ZM330-120 120-330v-300l210-210h300l210 210v300L630-120H330Zm34-80h232l164-164v-232L596-760H364L200-596v232l164 164Zm116-280Z" fill="#f59e0b"/>
  </svg>
</svg>