<svg xmlns="http://www.w3.org/2000/svg" width="56" height="56" viewBox="0 0 56 56">
  <rect width="56" height="56" rx="8" ry="8" fill="#10141e"/>
  <svg x="8" y="8" width="40" height="40" viewBox="0 -960 960 960">
    <path d="M200-280v-280h80v280h-80Zm240 0v-280h80v280h-80ZM80-640v-80l400-200 400 200v80H80Zm179-80h442L480-830 259-720ZM80-120v-80h482q2 21 5 40.5t9 39.5H80Zm600-310v-130h80v90l-80 40ZM800 0q-69-17-114.5-79.5T640-218v-102l160-80 160 80v102q0 76-45.5 138.5T800 0Zm-29-120 139-138-42-42-97 95-39-39-42 43 81 81ZM259-720h442-442Z" fill="#f97316"/>
  </svg>
</svg>