<svg xmlns="http://www.w3.org/2000/svg" width="56" height="56" viewBox="0 0 56 56">
  <rect width="56" height="56" rx="8" ry="8" fill="#10141e"/>
  <svg x="8" y="8" width="40" height="40" viewBox="0 -960 960 960">
    <path d="m560-60-280-78v58H40v-440h318l322 120v80h200v160L560-60ZM120-160h80v-280h-80v280Zm438 16 238-74v-22H513l-125-42 24-76 117 38h71v-26l-256-94h-64v220l278 76Zm202-256v-260L560-800 360-660v60h-80v-100l280-200 280 200v300h-80ZM560-800Zm20 160h40v-40h-40v40Zm-80 0h40v-40h-40v40Zm80 80h40v-40h-40v40Zm-80 0h40v-40h-40v40Z" fill="#f97316"/>
  </svg>
</svg>