<svg xmlns="http://www.w3.org/2000/svg" width="56" height="56" viewBox="0 0 56 56">
  <rect width="56" height="56" rx="8" ry="8" fill="#10141e"/>
  <svg x="8" y="8" width="40" height="40" viewBox="0 -960 960 960">
    <path d="M790-56 414-434q-47 11-87.5 33T254-346l-84-86q32-32 69-56t79-42l-90-90q-41 21-76.5 46.5T84-516L0-602q32-32 66.5-57.5T140-708l-84-84 56-56 736 736-58 56Zm-74-302-29-29-29-29-144-144q81 8 151.5 41T790-432l-74 74Zm160-158q-77-77-178.5-120.5T480-680q-21 0-40.5 1.5T400-674L298-776q44-12 89.5-18t92.5-6q142 0 265 53t215 145l-84 86ZM480-120 339-262q28-28 64.5-43t76.5-15q40 0 76.5 15t64.5 43L480-120Z" fill="#06b6d4"/>
  </svg>
</svg>