<svg xmlns="http://www.w3.org/2000/svg" width="56" height="56" viewBox="0 0 56 56">
  <rect width="56" height="56" rx="8" ry="8" fill="#ffffff"/>
  <svg x="8" y="8" width="40" height="40" viewBox="0 -960 960 960">
    <path d="m424-318 282-282-56-56-226 226-114-114-56 56 170 170ZM120-120v-720h248q13-36 43.5-58t68.5-22q38 0 68.5 22t43.5 58h248v720H120Zm80-80h560v-560H200v560Zm301.5-598.5Q510-807 510-820t-8.5-21.5Q493-850 480-850t-21.5 8.5Q450-833 450-820t8.5 21.5Q467-790 480-790t21.5-8.5ZM200-200v-560 560Z" fill="#ec4899"/>
  </svg>
</svg>